<svg width="2000px" height="708px"
 viewBox="0.00 0.00 1101.11 390.39" xmlns="http://www.w3.org/2000/svg" xmlns:xlink="http://www.w3.org/1999/xlink">
<g id="graph0" class="graph" transform="scale(1.0 1.0) rotate(0) translate(4 386.39)">
<title>ContextMapGraph</title>
<polygon fill="white" stroke="transparent" points="-4,4 -4,-386.39 1097.11,-386.39 1097.11,4 -4,4"/>
<!-- CatalogoProductos -->
<g id="node1" class="node">
<title>CatalogoProductos</title>
<polygon fill="none" stroke="black" stroke-width="2" points="723.25,-297.97 731.39,-299.22 739.31,-300.56 746.98,-302 754.36,-303.53 761.42,-305.14 768.14,-306.84 774.48,-308.6 780.43,-310.44 785.95,-312.33 791.04,-314.28 795.66,-316.28 799.81,-318.33 803.46,-320.41 806.61,-322.52 809.25,-324.66 811.38,-326.83 812.98,-329 814.07,-331.19 814.63,-333.38 814.68,-335.57 814.22,-337.75 813.26,-339.92 811.82,-342.07 809.9,-344.2 807.52,-346.31 804.7,-348.39 801.46,-350.43 797.81,-352.44 793.79,-354.4 789.41,-356.31 784.69,-358.17 779.66,-359.98 774.36,-361.73 768.79,-363.42 762.98,-365.05 756.97,-366.61 750.78,-368.09 744.43,-369.5 737.94,-370.84 731.35,-372.09 724.66,-373.26 717.91,-374.35 711.12,-375.34 704.3,-376.25 697.48,-377.06 690.67,-377.77 683.88,-378.39 677.14,-378.91 670.46,-379.32 663.84,-379.63 657.3,-379.83 650.86,-379.93 644.51,-379.91 638.27,-379.79 632.14,-379.56 626.14,-379.21 620.26,-378.75 614.51,-378.18 608.89,-377.5 603.41,-376.71 598.07,-375.8 592.88,-374.79 587.83,-373.67 582.93,-372.44 578.18,-371.11 573.6,-369.67 569.17,-368.14 564.91,-366.51 560.81,-364.79 556.89,-362.98 553.16,-361.09 549.61,-359.11 546.25,-357.07 543.1,-354.95 540.16,-352.78 537.44,-350.54 534.95,-348.26 532.7,-345.93 530.71,-343.57 528.97,-341.18 527.52,-338.76 526.34,-336.33 525.47,-333.9 524.91,-331.46 524.67,-329.04 524.77,-326.63 525.21,-324.25 526,-321.9 527.16,-319.59 528.69,-317.33 530.61,-315.13 532.91,-312.99 535.6,-310.92 538.69,-308.93 542.17,-307.02 546.05,-305.2 550.33,-303.49 555,-301.87 560.05,-300.36 565.48,-298.97 571.28,-297.69 577.44,-296.53 583.93,-295.5 590.75,-294.59 597.87,-293.82 605.28,-293.18 612.95,-292.67 620.85,-292.29 628.97,-292.06 637.27,-291.95 645.72,-291.98 654.3,-292.14 662.96,-292.44 671.68,-292.86 680.43,-293.41 689.16,-294.09 697.84,-294.89 706.44,-295.8 714.92,-296.83 723.25,-297.97"/>
<text text-anchor="middle" x="661.19" y="-333.28" font-family="sans-serif" font-size="16.00">CatalogoProductos</text>
</g>
<!-- ProcesamientoPedidos -->
<g id="node2" class="node">
<title>ProcesamientoPedidos</title>
<polygon fill="none" stroke="black" stroke-width="2" points="43.32,-189.58 44.19,-186.71 45.5,-183.87 47.23,-181.07 49.39,-178.32 51.97,-175.63 54.96,-173.02 58.35,-170.5 62.14,-168.06 66.31,-165.74 70.86,-163.52 75.76,-161.42 81.01,-159.45 86.59,-157.61 92.49,-155.91 98.69,-154.35 105.18,-152.93 111.93,-151.67 118.92,-150.56 126.15,-149.6 133.58,-148.79 141.21,-148.14 148.99,-147.64 156.93,-147.3 164.99,-147.1 173.15,-147.04 181.39,-147.13 189.69,-147.36 198.02,-147.72 206.36,-148.21 214.69,-148.82 222.99,-149.55 231.23,-150.39 239.39,-151.34 247.45,-152.38 255.39,-153.52 263.18,-154.75 270.8,-156.06 278.23,-157.44 285.46,-158.88 292.45,-160.39 299.2,-161.96 305.69,-163.58 311.89,-165.24 317.79,-166.94 323.37,-168.68 328.62,-170.45 333.52,-172.24 338.07,-174.06 342.24,-175.9 346.03,-177.76 349.42,-179.63 352.41,-181.51 354.99,-183.41 357.15,-185.31 358.88,-187.21 360.19,-189.13 361.06,-191.04 361.5,-192.96 361.5,-194.88 361.06,-196.79 360.19,-198.71 358.88,-200.62 357.15,-202.53 354.99,-204.43 352.41,-206.32 349.42,-208.21 346.03,-210.08 342.24,-211.94 338.07,-213.78 333.52,-215.59 328.62,-217.39 323.37,-219.16 317.79,-220.9 311.89,-222.6 305.69,-224.26 299.2,-225.88 292.45,-227.44 285.46,-228.95 278.23,-230.4 270.8,-231.78 263.18,-233.09 255.39,-234.31 247.45,-235.45 239.39,-236.5 231.23,-237.45 222.99,-238.29 214.69,-239.02 206.36,-239.63 198.02,-240.12 189.69,-240.48 181.39,-240.71 173.15,-240.79 164.99,-240.74 156.93,-240.54 148.99,-240.19 141.21,-239.69 133.58,-239.04 126.15,-238.24 118.92,-237.28 111.93,-236.17 105.18,-234.9 98.69,-233.49 92.49,-231.93 86.59,-230.23 81.01,-228.39 75.76,-226.42 70.86,-224.32 66.31,-222.1 62.14,-219.77 58.35,-217.34 54.96,-214.81 51.97,-212.2 49.39,-209.52 47.23,-206.77 45.5,-203.97 44.19,-201.13 43.32,-198.26 42.88,-195.37 42.88,-192.47 43.32,-189.58"/>
<text text-anchor="middle" x="202.19" y="-190.12" font-family="sans-serif" font-size="16.00">ProcesamientoPedidos</text>
</g>
<!-- CatalogoProductos&#45;&gt;ProcesamientoPedidos -->
<g id="edge1" class="edge">
<title>CatalogoProductos&#45;&gt;ProcesamientoPedidos</title>
<path fill="none" stroke="black" stroke-width="2" d="M552.41,-302.63C476.33,-279.23 375.5,-248.22 301.57,-225.48"/>
<text text-anchor="middle" x="488.19" y="-264.17" font-family="sans-serif" font-size="12.00">Shared Kernel</text>
</g>
<!-- GestionVentas -->
<g id="node4" class="node">
<title>GestionVentas</title>
<polygon fill="none" stroke="black" stroke-width="2" points="630.57,-236.43 623.4,-235.7 616.35,-234.85 609.47,-233.89 602.77,-232.82 596.28,-231.65 590.03,-230.39 584.05,-229.02 578.35,-227.57 572.96,-226.03 567.9,-224.4 563.19,-222.7 558.84,-220.93 554.86,-219.09 551.27,-217.19 548.09,-215.23 545.31,-213.22 542.94,-211.16 540.98,-209.06 539.44,-206.93 538.32,-204.76 537.61,-202.57 537.31,-200.36 537.4,-198.14 537.89,-195.91 538.77,-193.68 540.01,-191.45 541.61,-189.23 543.55,-187.02 545.82,-184.84 548.4,-182.67 551.28,-180.54 554.43,-178.44 557.84,-176.38 561.49,-174.37 565.35,-172.41 569.42,-170.5 573.68,-168.65 578.09,-166.87 582.66,-165.15 587.35,-163.51 592.15,-161.94 597.05,-160.46 602.03,-159.06 607.07,-157.74 612.17,-156.53 617.3,-155.4 622.46,-154.38 627.63,-153.46 632.81,-152.64 637.99,-151.93 643.15,-151.33 648.3,-150.85 653.41,-150.47 658.5,-150.22 663.55,-150.08 668.56,-150.05 673.52,-150.15 678.44,-150.36 683.3,-150.7 688.1,-151.15 692.85,-151.72 697.54,-152.41 702.16,-153.21 706.71,-154.13 711.19,-155.16 715.6,-156.3 719.93,-157.55 724.17,-158.91 728.31,-160.36 732.37,-161.92 736.31,-163.56 740.15,-165.3 743.86,-167.12 747.45,-169.03 750.9,-171 754.19,-173.05 757.33,-175.16 760.29,-177.33 763.07,-179.55 765.65,-181.81 768.02,-184.12 770.17,-186.45 772.08,-188.81 773.73,-191.19 775.13,-193.57 776.24,-195.96 777.07,-198.35 777.59,-200.73 777.8,-203.08 777.68,-205.42 777.23,-207.72 776.44,-209.98 775.3,-212.19 773.8,-214.35 771.93,-216.45 769.71,-218.48 767.11,-220.45 764.15,-222.33 760.83,-224.13 757.15,-225.85 753.11,-227.46 748.73,-228.98 744.01,-230.4 738.96,-231.71 733.61,-232.91 727.96,-234 722.04,-234.97 715.86,-235.82 709.44,-236.56 702.8,-237.17 695.98,-237.65 688.99,-238.01 681.87,-238.25 674.64,-238.36 667.32,-238.34 659.95,-238.2 652.56,-237.94 645.18,-237.56 637.84,-237.06 630.57,-236.43"/>
<text text-anchor="middle" x="661.19" y="-190.12" font-family="sans-serif" font-size="16.00">GestionVentas</text>
</g>
<!-- CatalogoProductos&#45;&gt;GestionVentas -->
<g id="edge2" class="edge">
<title>CatalogoProductos&#45;&gt;GestionVentas</title>
<path fill="none" stroke="black" stroke-width="2" d="M661.19,-292.19C661.19,-275.03 661.19,-255.41 661.19,-238.3"/>
<text text-anchor="middle" x="703.19" y="-264.17" font-family="sans-serif" font-size="12.00">Shared Kernel</text>
</g>
<!-- GestionInventario -->
<g id="node8" class="node">
<title>GestionInventario</title>
<polygon fill="none" stroke="black" stroke-width="2" points="1063.64,-174.47 1067.62,-177.02 1071.25,-179.6 1074.5,-182.21 1077.38,-184.84 1079.85,-187.48 1081.91,-190.11 1083.56,-192.73 1084.77,-195.33 1085.54,-197.89 1085.88,-200.42 1085.76,-202.9 1085.2,-205.33 1084.2,-207.69 1082.74,-209.98 1080.85,-212.19 1078.52,-214.32 1075.77,-216.37 1072.59,-218.32 1069.01,-220.18 1065.04,-221.94 1060.68,-223.6 1055.97,-225.15 1050.91,-226.6 1045.52,-227.93 1039.82,-229.17 1033.85,-230.29 1027.61,-231.3 1021.13,-232.21 1014.44,-233.01 1007.56,-233.71 1000.52,-234.3 993.33,-234.79 986.04,-235.18 978.65,-235.47 971.21,-235.66 963.73,-235.76 956.24,-235.77 948.77,-235.69 941.33,-235.52 933.96,-235.27 926.67,-234.93 919.49,-234.51 912.44,-234.02 905.54,-233.44 898.8,-232.79 892.25,-232.06 885.9,-231.26 879.77,-230.39 873.87,-229.45 868.21,-228.44 862.81,-227.35 857.68,-226.2 852.82,-224.98 848.25,-223.7 843.97,-222.34 839.98,-220.92 836.3,-219.44 832.92,-217.89 829.84,-216.27 827.08,-214.59 824.63,-212.85 822.5,-211.05 820.67,-209.2 819.15,-207.28 817.95,-205.31 817.05,-203.29 816.45,-201.22 816.16,-199.11 816.17,-196.95 816.47,-194.76 817.07,-192.53 817.96,-190.28 819.13,-188.01 820.58,-185.72 822.31,-183.42 824.31,-181.11 826.58,-178.81 829.12,-176.52 831.92,-174.25 834.97,-172.01 838.28,-169.8 841.83,-167.64 845.63,-165.53 849.66,-163.47 853.92,-161.49 858.41,-159.58 863.11,-157.76 868.03,-156.04 873.16,-154.41 878.48,-152.9 883.99,-151.5 889.69,-150.23 895.55,-149.08 901.58,-148.08 907.75,-147.22 914.07,-146.51 920.51,-145.95 927.06,-145.55 933.72,-145.3 940.45,-145.22 947.25,-145.31 954.11,-145.55 961,-145.96 967.9,-146.54 974.8,-147.28 981.68,-148.17 988.51,-149.23 995.28,-150.43 1001.96,-151.79 1008.54,-153.29 1014.99,-154.92 1021.28,-156.68 1027.41,-158.57 1033.34,-160.57 1039.05,-162.67 1044.53,-164.88 1049.74,-167.17 1054.68,-169.54 1059.32,-171.98 1063.64,-174.47"/>
<text text-anchor="middle" x="944.19" y="-190.12" font-family="sans-serif" font-size="16.00">GestionInventario</text>
</g>
<!-- CatalogoProductos&#45;&gt;GestionInventario -->
<g id="edge3" class="edge">
<title>CatalogoProductos&#45;&gt;GestionInventario</title>
<path fill="none" stroke="black" stroke-width="2" d="M734.44,-299.54C777.67,-277.98 832.09,-250.83 874.66,-229.6"/>
<text text-anchor="middle" x="853.19" y="-264.17" font-family="sans-serif" font-size="12.00">Shared Kernel</text>
</g>
<!-- GestionClientes -->
<g id="node3" class="node">
<title>GestionClientes</title>
<polygon fill="none" stroke="black" stroke-width="2" points="238.47,-60.63 236.31,-63.39 233.84,-66.1 231.08,-68.75 228.02,-71.33 224.69,-73.82 221.09,-76.22 217.23,-78.51 213.13,-80.69 208.79,-82.75 204.24,-84.68 199.48,-86.48 194.52,-88.13 189.39,-89.64 184.09,-90.99 178.65,-92.19 173.07,-93.23 167.37,-94.11 161.56,-94.83 155.67,-95.39 149.7,-95.79 143.67,-96.03 137.59,-96.11 131.49,-96.03 125.37,-95.8 119.25,-95.42 113.15,-94.91 107.08,-94.25 101.05,-93.46 95.08,-92.54 89.18,-91.5 83.38,-90.35 77.67,-89.1 72.08,-87.74 66.61,-86.29 61.29,-84.76 56.12,-83.15 51.12,-81.47 46.29,-79.73 41.66,-77.94 37.23,-76.09 33.02,-74.21 29.03,-72.28 25.27,-70.33 21.77,-68.36 18.51,-66.36 15.52,-64.36 12.81,-62.34 10.37,-60.32 8.22,-58.3 6.37,-56.29 4.82,-54.28 3.58,-52.28 2.65,-50.29 2.04,-48.32 1.74,-46.36 1.77,-44.42 2.13,-42.5 2.81,-40.6 3.81,-38.73 5.15,-36.87 6.8,-35.04 8.78,-33.24 11.08,-31.47 13.69,-29.72 16.6,-28 19.82,-26.32 23.34,-24.67 27.14,-23.05 31.22,-21.47 35.57,-19.93 40.17,-18.43 45.01,-16.97 50.09,-15.56 55.39,-14.21 60.89,-12.91 66.57,-11.67 72.43,-10.49 78.45,-9.38 84.6,-8.35 90.87,-7.39 97.24,-6.51 103.7,-5.72 110.22,-5.02 116.78,-4.42 123.37,-3.92 129.96,-3.53 136.54,-3.25 143.07,-3.09 149.56,-3.05 155.96,-3.14 162.27,-3.35 168.47,-3.7 174.53,-4.18 180.44,-4.8 186.18,-5.56 191.73,-6.45 197.08,-7.49 202.2,-8.67 207.09,-9.99 211.73,-11.44 216.1,-13.03 220.2,-14.76 224,-16.61 227.51,-18.58 230.71,-20.68 233.6,-22.88 236.15,-25.19 238.38,-27.6 240.27,-30.1 241.82,-32.68 243.03,-35.33 243.89,-38.04 244.4,-40.8 244.57,-43.6 244.4,-46.43 243.88,-49.28 243.02,-52.14 241.83,-54.99 240.31,-57.82 238.47,-60.63"/>
<text text-anchor="middle" x="122.19" y="-44.24" font-family="sans-serif" font-size="16.00">GestionClientes</text>
</g>
<!-- ProcesamientoPedidos&#45;&gt;GestionClientes -->
<g id="edge4" class="edge">
<title>ProcesamientoPedidos&#45;&gt;GestionClientes</title>
<path fill="none" stroke="black" stroke-width="2" d="M176.66,-147C167.6,-130.71 157.41,-112.37 148.31,-96"/>
<text text-anchor="middle" x="207.19" y="-117.47" font-family="sans-serif" font-size="12.00">Shared Kernel</text>
</g>
<!-- ServiciosFotocopias -->
<g id="node5" class="node">
<title>ServiciosFotocopias</title>
<polygon fill="none" stroke="black" stroke-width="2" points="487.94,-8.93 496.43,-10.17 504.7,-11.52 512.69,-12.96 520.39,-14.48 527.76,-16.1 534.77,-17.79 541.39,-19.56 547.59,-21.39 553.36,-23.29 558.66,-25.24 563.48,-27.24 567.81,-29.28 571.62,-31.36 574.91,-33.48 577.66,-35.62 579.88,-37.78 581.55,-39.96 582.68,-42.14 583.27,-44.33 583.32,-46.52 582.84,-48.7 581.85,-50.87 580.34,-53.03 578.33,-55.16 575.85,-57.27 572.91,-59.34 569.53,-61.39 565.73,-63.39 561.53,-65.35 556.96,-67.27 552.04,-69.13 546.79,-70.94 541.25,-72.69 535.44,-74.38 529.39,-76.01 523.12,-77.56 516.66,-79.05 510.03,-80.46 503.26,-81.79 496.38,-83.05 489.41,-84.22 482.37,-85.3 475.28,-86.3 468.17,-87.2 461.05,-88.01 453.94,-88.73 446.86,-89.35 439.83,-89.86 432.86,-90.27 425.95,-90.58 419.14,-90.79 412.41,-90.88 405.79,-90.87 399.28,-90.75 392.89,-90.51 386.62,-90.17 380.49,-89.71 374.49,-89.14 368.62,-88.46 362.91,-87.66 357.34,-86.76 351.92,-85.75 346.65,-84.62 341.54,-83.4 336.59,-82.06 331.8,-80.63 327.18,-79.09 322.74,-77.46 318.47,-75.74 314.38,-73.93 310.48,-72.04 306.78,-70.07 303.28,-68.02 299.99,-65.91 296.92,-63.73 294.08,-61.5 291.49,-59.21 289.14,-56.89 287.06,-54.52 285.25,-52.13 283.73,-49.72 282.51,-47.29 281.6,-44.85 281.01,-42.42 280.76,-39.99 280.86,-37.59 281.32,-35.2 282.15,-32.85 283.36,-30.55 284.96,-28.29 286.95,-26.08 289.35,-23.94 292.16,-21.87 295.38,-19.88 299.02,-17.97 303.07,-16.16 307.53,-14.44 312.4,-12.82 317.67,-11.32 323.34,-9.92 329.39,-8.64 335.81,-7.49 342.58,-6.45 349.7,-5.55 357.13,-4.78 364.86,-4.13 372.86,-3.62 381.11,-3.25 389.58,-3.01 398.24,-2.91 407.05,-2.94 416,-3.1 425.04,-3.39 434.14,-3.82 443.26,-4.37 452.37,-5.05 461.43,-5.84 470.4,-6.76 479.25,-7.79 487.94,-8.93"/>
<text text-anchor="middle" x="423.19" y="-44.24" font-family="sans-serif" font-size="16.00">ServiciosFotocopias</text>
</g>
<!-- GestionVentas&#45;&gt;ServiciosFotocopias -->
<g id="edge5" class="edge">
<title>GestionVentas&#45;&gt;ServiciosFotocopias</title>
<path fill="none" stroke="black" stroke-width="2" d="M604.18,-158.45C567.6,-136.34 520.18,-107.67 483.05,-85.23"/>
<text text-anchor="middle" x="592.19" y="-117.47" font-family="sans-serif" font-size="12.00">Shared Kernel</text>
</g>
<!-- ServiciosEntrega -->
<g id="node6" class="node">
<title>ServiciosEntrega</title>
<polygon fill="none" stroke="black" stroke-width="2" points="707.99,-90.69 699.91,-90.01 691.96,-89.21 684.19,-88.29 676.62,-87.28 669.29,-86.15 662.22,-84.93 655.44,-83.61 648.97,-82.19 642.85,-80.69 637.1,-79.11 631.72,-77.44 626.75,-75.7 622.2,-73.89 618.09,-72.01 614.41,-70.08 611.19,-68.09 608.43,-66.05 606.13,-63.97 604.3,-61.85 602.93,-59.69 602.02,-57.51 601.57,-55.31 601.57,-53.09 602.01,-50.86 602.87,-48.63 604.15,-46.39 605.84,-44.17 607.9,-41.95 610.34,-39.75 613.13,-37.57 616.24,-35.42 619.67,-33.31 623.39,-31.23 627.38,-29.19 631.62,-27.21 636.09,-25.28 640.77,-23.4 645.63,-21.59 650.66,-19.84 655.84,-18.17 661.15,-16.58 666.57,-15.06 672.08,-13.63 677.67,-12.28 683.33,-11.03 689.02,-9.88 694.76,-8.82 700.52,-7.87 706.28,-7.02 712.05,-6.27 717.81,-5.64 723.56,-5.12 729.28,-4.71 734.97,-4.42 740.63,-4.25 746.25,-4.19 751.82,-4.25 757.34,-4.43 762.81,-4.73 768.22,-5.15 773.58,-5.69 778.87,-6.34 784.09,-7.11 789.24,-8 794.32,-9 799.32,-10.11 804.23,-11.33 809.06,-12.65 813.78,-14.08 818.41,-15.6 822.92,-17.22 827.31,-18.93 831.56,-20.72 835.68,-22.6 839.65,-24.55 843.45,-26.57 847.07,-28.66 850.5,-30.8 853.73,-33 856.74,-35.24 859.51,-37.52 862.04,-39.84 864.3,-42.18 866.27,-44.55 867.96,-46.92 869.33,-49.3 870.38,-51.68 871.08,-54.04 871.43,-56.4 871.42,-58.73 871.03,-61.02 870.26,-63.29 869.09,-65.5 867.51,-67.67 865.53,-69.78 863.13,-71.83 860.32,-73.81 857.1,-75.71 853.46,-77.53 849.42,-79.26 844.97,-80.91 840.13,-82.45 834.91,-83.9 829.32,-85.24 823.38,-86.48 817.1,-87.6 810.5,-88.61 803.61,-89.51 796.45,-90.28 789.04,-90.93 781.41,-91.46 773.59,-91.87 765.61,-92.15 757.51,-92.31 749.3,-92.35 741.03,-92.26 732.73,-92.05 724.44,-91.72 716.18,-91.26 707.99,-90.69"/>
<text text-anchor="middle" x="740.19" y="-44.24" font-family="sans-serif" font-size="16.00">ServiciosEntrega</text>
</g>
<!-- GestionVentas&#45;&gt;ServiciosEntrega -->
<g id="edge6" class="edge">
<title>GestionVentas&#45;&gt;ServiciosEntrega</title>
<path fill="none" stroke="black" stroke-width="2" d="M684.47,-150.53C694.66,-131.96 706.6,-110.21 716.81,-91.62"/>
<text text-anchor="middle" x="745.19" y="-117.47" font-family="sans-serif" font-size="12.00">Shared Kernel</text>
</g>
<!-- Facturacion -->
<g id="node7" class="node">
<title>Facturacion</title>
<polygon fill="none" stroke="black" stroke-width="2" points="1090.89,-56.9 1089.69,-59.72 1088.24,-62.49 1086.53,-65.22 1084.58,-67.88 1082.39,-70.46 1079.97,-72.96 1077.32,-75.36 1074.45,-77.66 1071.37,-79.85 1068.09,-81.91 1064.62,-83.85 1060.97,-85.65 1057.14,-87.31 1053.16,-88.83 1049.02,-90.19 1044.75,-91.41 1040.35,-92.46 1035.83,-93.36 1031.21,-94.1 1026.5,-94.69 1021.71,-95.11 1016.86,-95.38 1011.95,-95.5 1006.99,-95.47 1002.01,-95.29 997.02,-94.96 992.02,-94.5 987.03,-93.9 982.07,-93.18 977.14,-92.33 972.26,-91.37 967.44,-90.3 962.69,-89.13 958.02,-87.86 953.46,-86.5 949,-85.07 944.66,-83.55 940.46,-81.97 936.4,-80.33 932.49,-78.63 928.74,-76.89 925.17,-75.1 921.78,-73.28 918.58,-71.43 915.59,-69.54 912.8,-67.64 910.23,-65.72 907.89,-63.79 905.77,-61.85 903.9,-59.9 902.27,-57.95 900.88,-56 899.75,-54.05 898.88,-52.11 898.26,-50.17 897.91,-48.24 897.82,-46.31 898,-44.4 898.45,-42.5 899.16,-40.62 900.13,-38.75 901.37,-36.89 902.86,-35.05 904.62,-33.23 906.63,-31.43 908.88,-29.65 911.38,-27.9 914.12,-26.17 917.08,-24.47 920.27,-22.79 923.67,-21.16 927.28,-19.56 931.08,-18 935.06,-16.48 939.22,-15.01 943.54,-13.6 948.01,-12.24 952.62,-10.95 957.35,-9.73 962.2,-8.57 967.14,-7.5 972.16,-6.51 977.26,-5.61 982.41,-4.8 987.59,-4.1 992.8,-3.5 998.02,-3.02 1003.24,-2.65 1008.43,-2.41 1013.58,-2.29 1018.68,-2.31 1023.72,-2.46 1028.68,-2.74 1033.53,-3.17 1038.28,-3.75 1042.91,-4.46 1047.4,-5.33 1051.74,-6.34 1055.91,-7.5 1059.91,-8.8 1063.73,-10.24 1067.35,-11.83 1070.76,-13.55 1073.96,-15.41 1076.93,-17.39 1079.67,-19.49 1082.17,-21.71 1084.42,-24.04 1086.42,-26.46 1088.16,-28.98 1089.64,-31.58 1090.86,-34.25 1091.81,-36.98 1092.49,-39.76 1092.89,-42.59 1093.03,-45.44 1092.9,-48.31 1092.49,-51.18 1091.82,-54.05 1090.89,-56.9"/>
<text text-anchor="middle" x="995.19" y="-44.24" font-family="sans-serif" font-size="16.00">Facturacion</text>
</g>
<!-- GestionVentas&#45;&gt;Facturacion -->
<g id="edge7" class="edge">
<title>GestionVentas&#45;&gt;Facturacion</title>
<path fill="none" stroke="black" stroke-width="2" d="M733.61,-162.26C778.23,-143.31 836.59,-118.42 888.19,-96.07 901.78,-90.18 916.32,-83.83 930.17,-77.75"/>
<text text-anchor="middle" x="887.19" y="-117.47" font-family="sans-serif" font-size="12.00">Shared Kernel</text>
</g>
</g>
</svg>
